<svg xmlns="http://www.w3.org/2000/svg" width="1024" height="1024" viewBox="0 0 96 96" fill="none">
  
  <defs>
    <linearGradient id="bg" x1="0" y1="0" x2="96" y2="96" gradientUnits="userSpaceOnUse">
      <stop offset="0" stop-color="#37835B"></stop>
      <stop offset="1" stop-color="#173B27"></stop>
    </linearGradient>
  </defs>
  <rect width="96" height="96" rx="22" fill="url(#bg)"></rect>
  <g transform="translate(48 48) scale(0.86) translate(-48 -48)">
    <path d="M22 28 Q22 21 29 21 H40 Q44.5 21 47.5 24 L52 28.5 Q55 31.5 59.5 31.5 H67 Q74 31.5 74 38.5 V52 C74 68.5 61.5 78.5 48 84.5 C34.5 78.5 22 68.5 22 52 Z" fill="#CBDCC9"></path>
    <path d="M24 40 H72 Q74 40 74 42 V52 C74 68.5 61.5 78.5 48 84.5 C34.5 78.5 22 68.5 22 52 V42 Q22 40 24 40 Z" fill="#F3EEE4"></path>
  </g>
</svg>